<?xml version="1.0" encoding="utf-8"?>
<!-- Generator: Adobe Illustrator 24.1.2, SVG Export Plug-In . SVG Version: 6.00 Build 0)  -->
<svg version="1.1" id="Слой_1" xmlns="http://www.w3.org/2000/svg" xmlns:xlink="http://www.w3.org/1999/xlink" x="0px" y="0px"
	 viewBox="0 0 500 500" style="enable-background:new 0 0 500 500;" xml:space="preserve">
<style type="text/css">
	.st0{clip-path:url(#SVGID_2_);}
	.st1{fill:#D7FD8A;filter:url(#Adobe_OpacityMaskFilter);}
	.st2{mask:url(#mask0_1_);}
	.st3{fill:#B07F48;}
	.st4{fill:#92C01F;}
	.st5{opacity:0.7;fill:#6BAD35;enable-background:new    ;}
	.st6{fill:#D7E085;}
	.st7{fill:#24130D;}
	.st8{fill:#6BAD35;}
	.st9{fill:#625752;}
	.st10{fill:#93847D;}
	.st11{fill-rule:evenodd;clip-rule:evenodd;fill:#625752;}
	.st12{fill:#2B2B2B;}
	.st13{fill:#CBC0C0;}
</style>
<g>
	<defs>
		<rect id="SVGID_1_" width="500" height="500"/>
	</defs>
	<clipPath id="SVGID_2_">
		<use xlink:href="#SVGID_1_"  style="overflow:visible;"/>
	</clipPath>
	<g class="st0">
		<defs>
			<filter id="Adobe_OpacityMaskFilter" filterUnits="userSpaceOnUse" x="85.4" y="24" width="328.8" height="490.3">
				<feColorMatrix  type="matrix" values="1 0 0 0 0  0 1 0 0 0  0 0 1 0 0  0 0 0 1 0"/>
			</filter>
		</defs>
		<mask maskUnits="userSpaceOnUse" x="85.4" y="24" width="328.8" height="490.3" id="mask0_1_">
			<ellipse class="st1" cx="250" cy="235.1" rx="250" ry="250.1"/>
		</mask>
		<g class="st2">
			<path class="st3" d="M374.1,144.9c7.7,16.2,11.9,34,11.9,52.7c0,73.2-64.9,132.6-144.9,132.6c-80,0-144.9-59.4-144.9-132.6
				c0-73.2,64.9-132.6,144.9-132.6c5,0,9.9,0.3,14.7,0.6l0.5-6.2c-5-0.5-10.2-0.8-15.3-0.8c-83.2,0-151,62.3-151,138.7
				c0,76.5,67.8,138.7,151,138.7s151.1-62.1,151.1-138.6c0-19.2-4.3-37.8-12.6-55.4L374.1,144.9z"/>
			<path class="st4" d="M239.1,202.1l16.7-136.5c-4.9-0.5-9.8-0.6-14.7-0.6c-80,0-144.9,59.4-144.9,132.6s64.9,132.6,144.9,132.6
				c80,0,144.9-59.4,144.9-132.6c0-18.7-4.3-36.5-11.9-52.7L239.1,202.1z"/>
			<path class="st5" d="M228.3,122.2c0-16.3,2.9-29.6,6.4-29.6s6.4,13.3,6.4,29.6s-6.4,29.6-6.4,29.6S228.3,138.5,228.3,122.2z"/>
			<path class="st5" d="M209.4,138.6c-5.3-15.4-6.9-28.9-3.5-30c3.4-1.1,10.4,10.4,15.7,25.9c5.3,15.4,3.5,30.1,3.5,30.1
				S214.7,154.1,209.4,138.6z"/>
			<path class="st5" d="M187.9,149.3c-10-12.9-15.9-25.1-13.1-27.2c2.9-2.1,13.2,6.5,23.2,19.3c10,12.8,13.1,27.2,13.1,27.2
				S198,162.2,187.9,149.3z"/>
			<path class="st5" d="M176.1,167.6c-13.7-8.9-23.2-18.6-21.2-21.6c2-3,14.6,1.9,28.2,10.8c13.7,8.9,21.2,21.6,21.2,21.6
				S189.8,176.5,176.1,167.6z"/>
			<path class="st5" d="M173.9,191.3c-16.1-3.3-28.5-8.7-27.7-12.2c0.8-3.5,14.2-3.6,30.3-0.5c16.1,3.1,27.7,12.2,27.7,12.2
				S189.8,194.5,173.9,191.3z"/>
			<path class="st5" d="M164.3,214.7c-16.2,2.1-29.8,1.1-30.1-2.4c-0.5-3.5,12.3-8.2,28.5-10.3c16.2-2.1,30.1,2.4,30.1,2.4
				S180.5,212.6,164.3,214.7z"/>
			<path class="st5" d="M182.8,235.7c-13.9,8.5-26.7,13.1-28.6,10s7.9-12.4,21.8-21c13.9-8.5,28.6-10,28.6-10S196.7,227,182.8,235.7
				z"/>
			<path class="st5" d="M197.2,255.7c-12.1,11-23.7,18-26.1,15.3c-2.4-2.6,5.4-13.7,17.4-24.7c12.1-11,26.1-15.3,26.1-15.3
				S209.3,244.7,197.2,255.7z"/>
			<path class="st5" d="M219.1,267c-7.8,14.3-16.6,24.6-19.7,23c-3.1-1.6,0.6-14.7,8.4-29.1c7.8-14.3,19.7-23,19.7-23
				S226.8,252.7,219.1,267z"/>
			<path class="st5" d="M245.5,264.3c-0.6,16.3-4,29.4-7.7,29.3c-3.5-0.1-5.9-13.6-5.3-29.9c0.6-16.3,7.7-29.3,7.7-29.3
				S246.3,248,245.5,264.3z"/>
			<path class="st5" d="M265.9,263c2.6,16.1,2,29.6-1.5,30.3c-3.5,0.6-8.5-12.1-11.2-28.1c-2.6-16.1,1.5-30.3,1.5-30.3
				S263.2,247,265.9,263z"/>
			<path class="st5" d="M289.1,252.2c7.8,14.3,11.5,27.4,8.4,29.1c-3.1,1.8-11.9-8.5-19.7-23c-7.8-14.4-8.4-29.1-8.4-29.1
				S281.4,237.9,289.1,252.2z"/>
			<path class="st5" d="M305.4,235.4c12.3,10.8,20.3,21.7,18,24.4c-2.4,2.6-14.2-3.9-26.5-14.7c-12.3-10.8-18-24.4-18-24.4
				S293.1,224.6,305.4,235.4z"/>
			<path class="st5" d="M317,211.7c12.9,5.6,22.1,13.1,20.6,16.4c-1.5,3.4-13.2,1.6-26-4S291,207.7,291,207.7S304,206,317,211.7z"/>
			<path class="st5" d="M316.6,188.2c16.3,1.4,29.3,5.3,29,8.9c-0.3,3.6-13.7,5.3-30,4c-16.3-1.4-29-8.9-29-8.9
				S300.3,186.8,316.6,188.2z"/>
			<path class="st5" d="M335.6,161.2l-41.7,17.7c5.4,0.1,12.3-0.3,19.3-2c15.8-4,28-10,27.1-13.6
				C339.9,162.2,338.3,161.5,335.6,161.2z"/>
			<path class="st6" d="M284.1,194.1c3.4-1.1,5.1-1.8,8.5-3c-3.8-0.3-5.6-0.4-9.4-0.8c3.1-1.5,4.8-2.3,8-3.6c-3.8,0-5.6,0-9.5,0.1
				c2.9-1.8,4.4-2.6,7.3-4.3c-1.8,0.1-3.1,0.3-4.5,0.4l-45.3,19.2l6-48.5c-1.1,2-1.9,3.5-2.9,6.3c-1.5-3.1-2.3-4.9-3.4-7.7
				c-1.1,2.6-1.6,4.4-2.4,8.2c-1.9-3.4-2.9-5.4-4.5-8c-0.6,2.9-1,4.9-1.4,9c-2.1-3.6-3.1-5.4-5-7.9c-0.1,3.1,0,5.8,0,9.4
				c-2.4-2.8-3.6-4.8-6-7.3c0.4,3.3,0.6,5.6,1.1,9.3c-2.8-2.5-4-3.9-7-6.7c1,3.6,1.5,5.6,2.4,9c-3-2.3-4.8-3.5-8.2-5.9
				c1.6,3.6,2.4,5.1,3.8,8.5c-3.4-2-5.1-2.8-8.8-4.8c2.1,3.1,3.1,4.8,4.9,7.9c-3.5-1.5-5.9-2.5-9-4c2.1,2.9,3.5,4.4,5.6,7.5
				c-3.6-1.3-5.4-2.1-8.5-2.6c2.3,2.1,3.1,3.9,5.4,6c-3.6-0.6-4.8-0.9-7.9-1c2.3,1.5,3.3,2.4,5.5,4.4c-3.1-0.3-4.8-0.3-7.8-0.4
				c2.4,1.4,3.6,2.1,6.2,3.9c-3,0-4.3,0-7.5,0c2.9,1.3,3.9,2,6.5,3.6c-2.9,0.1-3.9,0-7.2,0.3c3.1,1.1,4,1.8,6.7,3.4
				c-2.8,0.1-3.5,0-7,0.5c3.4,0.9,4.1,1.5,6.8,3.1c-2.6,0.3-3.3,0.5-6.5,1.5c3.6,0.8,4.3,1.5,6.9,2.5c-2.4,1-2.8,1.5-5.5,2.9
				c3.3,0.4,3.8,0.6,6.4,1.1c-2.1,1.4-2.5,2.3-4.4,4c2.6,0,3.1-0.3,5.6-0.4c-1.9,1.8-2.5,3-3.8,5.1c1.8-0.6,2.8-1.3,5.1-1.6
				c-1.6,2-2.1,3.1-3.5,5.9c1.9-1.6,1.8-1.8,5.5-2.6c-2.3,2.3-2.4,2.9-3.6,4.5c2-1,3.3-1.1,6.8-2c-2,1.9-3.3,2.6-4,4.3
				c1.9-0.9,4.3-1.4,7.5-2c-1.6,1.9-2.1,2.8-3,4.4c2.4-0.8,3.6-0.9,6.7-2c-1.3,2.1-1.5,3.3-2.5,5c2.3-0.5,3.1-1.4,6.4-3
				c-1.1,2.5-1.5,3.5-2.5,5.9c2.4-1.8,4.5-2.3,7.4-4.1c-0.5,2.6-0.9,3.6-1.5,6.4c2.9-2,4.3-3,6.8-4.9c0.1,2.5,0,3.9,0.1,6.7
				c2.3-2.1,3.4-3.1,5.4-5.4c0.6,2.6,0.9,4,1.5,6.8c1.4-2.4,2-3.4,3.3-5.3c0.9,3,1.4,4.5,2.3,7.5c0.9-2.1,1.4-3.3,2.3-5.5
				c1.3,3,1.9,4.5,3.3,7.3c0.6-2.6,0.8-3.9,1.5-6.7c2,2.4,2.9,3.6,4.6,5.9c0.3-2.6,0.5-3.9,1-6.4c2.3,2.3,3.1,3.3,5.1,5.3
				c0-2.4,0.3-3.3,0.6-5.5c2.4,2,3.1,2.6,5.8,4.3c-0.3-2.1,0-2.9,0.1-4.9c2.9,1.5,3.6,1.4,6.3,2c-0.8-2-0.8-2.9-1.1-4.5
				c2.4-0.1,3.4-0.6,6.5,0c-1.5-2.3-1.9-3-2.9-4.5c2.4-0.9,4.1-1.3,7.5,0.3c-2-2.8-3.3-3.9-4.8-5.4c2.8-1.1,5,0.3,8.5,1.1
				c-2.4-2.3-3.6-4.1-5.9-5.8c3.5-0.1,5.5,0.9,9.2,1.5c-2.6-2-3.9-2.9-6.7-4.9c3.8,0.4,5.6,0.5,9.4,0.9c-2.9-1.8-4.4-2.6-7.3-4.3
				c3.8,0,5.6,0,9.5,0.1c-3.1-1.5-4.8-2.3-8-3.6c3.8-0.3,5.6-0.4,9.4-0.8c-3.4-1.1-5.1-1.8-8.5-3c3.6-0.6,5.5-0.9,9.3-1.5
				c-3.6-0.9-5.4-1.4-8.9-2.3c3.6-0.9,5.4-1.4,8.9-2.3C289.6,195,287.7,194.7,284.1,194.1z"/>
			<path class="st7" d="M236,143.7c1.9-0.3,2.9-3.8,2.3-7.8c-0.7-4-2.8-6.9-4.7-6.6c-1.9,0.3-2.9,3.8-2.3,7.8
				C231.9,141,234,144,236,143.7z"/>
			<path class="st7" d="M226.2,152.5c1-0.7,0.5-3.1-1-5.2c-1.6-2.1-3.7-3.2-4.7-2.5s-0.5,3.1,1,5.2
				C223.1,152.1,225.2,153.2,226.2,152.5z"/>
			<path class="st7" d="M191.3,180.7c0.1-1.2-2-2.4-4.7-2.5c-2.6-0.1-4.8,0.8-4.9,2.1c-0.1,1.2,2,2.3,4.7,2.5
				C189.1,182.9,191.2,182,191.3,180.7z"/>
			<path class="st7" d="M184,201.9c2.4-1.1,3.9-2.9,3.4-4c-0.5-1.1-2.9-1.2-5.3-0.1c-2.4,1.1-3.9,2.9-3.4,4
				C179.2,203,181.6,203,184,201.9z"/>
			<path class="st7" d="M181.2,194.6c0.1-1.2-1.9-2.5-4.5-2.8c-2.6-0.3-4.9,0.5-5,1.7c-0.1,1.2,1.9,2.5,4.5,2.8
				C178.8,196.6,181,195.8,181.2,194.6z"/>
			<path class="st7" d="M206.1,152.6c1.4-1.2,0.4-4.7-2.3-7.7c-2.7-3-6-4.5-7.4-3.2c-1.4,1.2-0.4,4.7,2.3,7.7
				C201.4,152.4,204.7,153.9,206.1,152.6z"/>
			<path class="st7" d="M186.3,169.1c0.7-1.8-1.8-4.4-5.6-5.9c-3.8-1.4-7.4-1.1-8.1,0.7c-0.7,1.8,1.8,4.4,5.6,5.9
				C182,171.2,185.6,170.9,186.3,169.1z"/>
			<path class="st7" d="M178.2,216.4c3.8-1.4,6.3-4,5.6-5.8c-0.7-1.7-4.3-2-8-0.6c-3.8,1.4-6.3,4-5.6,5.8
				C170.9,217.5,174.5,217.8,178.2,216.4z"/>
			<path class="st7" d="M186.4,228.8c3-2.1,4.8-4.7,4-5.9c-0.8-1.2-3.9-0.5-7,1.6c-3,2.1-4.8,4.7-4,5.9
				C180.2,231.6,183.3,230.9,186.4,228.8z"/>
			<path class="st7" d="M213.4,247.4c1.9-3.6,2.1-7.1,0.4-8c-1.7-0.9-4.5,1.3-6.4,4.9c-1.9,3.6-2.1,7.2-0.4,8
				C208.7,253.1,211.5,250.9,213.4,247.4z"/>
			<path class="st7" d="M248.7,260c0-4-1.6-7.3-3.5-7.3c-1.9,0-3.5,3.3-3.5,7.3c0,4,1.6,7.3,3.5,7.3
				C247.2,267.2,248.7,264,248.7,260z"/>
			<path class="st7" d="M270.3,252.3c1.7-0.9,1.6-4.5-0.3-8.1c-1.9-3.6-4.8-5.7-6.5-4.8c-1.7,0.9-1.6,4.5,0.3,8.1
				C265.7,251,268.6,253.2,270.3,252.3z"/>
			<path class="st7" d="M296.6,243c1.1-1.5-0.8-4.6-4.1-6.9c-3.3-2.3-6.9-2.9-7.9-1.4c-1.1,1.5,0.8,4.6,4.1,6.9
				C292,243.9,295.6,244.5,296.6,243z"/>
			<path class="st7" d="M302.4,205.3c0.2-1.3-1.7-2.6-4.2-2.9c-2.5-0.3-4.6,0.5-4.8,1.8c-0.2,1.3,1.7,2.6,4.2,2.9
				C300.1,207.4,302.3,206.6,302.4,205.3z"/>
			<path class="st7" d="M304,183.9c4-0.1,7.2-1.7,7.2-3.6c-0.1-1.9-3.4-3.3-7.4-3.2c-4,0.1-7.2,1.7-7.2,3.6
				C296.7,182.6,300,184.1,304,183.9z"/>
			<path class="st7" d="M192.2,242.7c1.9-1.8,2.7-4.1,1.8-5s-3.1-0.1-5,1.7c-1.9,1.8-2.7,4.1-1.8,5S190.3,244.6,192.2,242.7z"/>
			<path class="st7" d="M235.3,248.8c1-2.4,0.9-4.8-0.3-5.3c-1.2-0.5-2.9,1.1-3.9,3.6c-1,2.4-0.9,4.8,0.3,5.3
				C232.6,252.8,234.3,251.2,235.3,248.8z"/>
			<path class="st7" d="M302.2,220.1c0.4-1.2-1.1-2.9-3.5-3.7c-2.4-0.8-4.6-0.5-5.1,0.8c-0.4,1.2,1.1,2.9,3.5,3.7
				C299.5,221.7,301.7,221.4,302.2,220.1z"/>
			<path class="st7" d="M304.5,196.9c2.4-0.6,4.1-2.2,3.7-3.5s-2.6-1.8-5-1.1c-2.4,0.6-4.1,2.2-3.7,3.5
				C299.9,197.1,302.1,197.6,304.5,196.9z"/>
			<path class="st4" d="M287.1,31.3l-10.8,87.2c0.6-1.4,1.3-2.5,2.1-4c0.8,2.6,1.4,4.4,2.4,7.3c1.4-2.6,2.1-4.3,3.9-7
				c0.3,2.9,0.5,4.9,1,8.2c1.8-2.4,2.8-4.1,4.9-7.3c-0.3,3.5-0.3,6-0.4,9.5c1-1,1.8-2.3,2.5-3.4h-0.1c0,0,3-14.4,13.1-27.2
				c10-12.8,20.5-21.6,23.2-19.3c2.8,2.1-3,14.4-13.1,27.2c-0.6,0.8-1.1,1.5-1.8,2.1c-0.1,0.8-0.3,1.5-0.6,2.3c-1,2.4-2.8,4-3.9,3.5
				c-0.3-0.1-0.4-0.3-0.5-0.5c-5,4.8-10,8.2-13.1,10c-0.5,2.6-1,4.8-1.5,7.9c2.6-2.5,4.5-3,6.9-3.3c-0.9,2.5-1.4,3.9-2.4,6.9
				c3-1.1,4.1-1,6.9-1c-1.1,1.6-1.6,2.6-3,5c3.1-0.6,4.8-0.3,8.2-1.4c-1.8,2-2.6,2.5-4.5,4.6c3.5-0.8,5.4-1,8.9-2
				c-2.3,2-3.4,2.8-5.6,4.9c3.6-0.6,5.5-1,9.2-1.6c-2.6,2-3.9,2.9-6.7,4.9c1.1-0.1,2-0.1,2.9-0.3l9.9-4.1c-5.6-0.3-9.3-1-9.3-1
				s3.6-3.1,9.8-6.5c-1.8,0.5-3.3,0.4-3.6-0.4c-0.6-1.1,0.9-3,3.1-4.3c2.4-1.3,4.8-1.4,5.3-0.3c0.5,0.9-0.3,2.1-1.8,3.3
				c4-2,8.9-4,14.2-5.4c9.7-2.5,18.6-3.5,24.1-3.3l36.2-15.3C382.9,65.9,339.1,35.7,287.1,31.3z M298.5,88
				c-1.3,5.9-3.4,11.2-5.4,15.6c0,1-0.1,2.3-0.4,3.4c-1,3.9-3.3,6.7-5,6.3c-1,1.5-1.6,2.3-1.6,2.3s-3.5-14.3,0-30.3
				c3.5-15.9,9-28.2,12.6-27.5C301.9,58.5,301.9,72.1,298.5,88z M329.4,120c-12.1,7.9-25.4,8.9-25.4,8.9s6.3-11.8,18.3-19.7
				c12.1-7.9,23.5-11.9,25.4-8.9C349.7,103.3,341.6,112.1,329.4,120z"/>
			<path class="st3" d="M378,62.4c-6.3-5.6-13.2-10.8-20.5-15.4c-20.2-12.6-43.9-20.8-69.5-23l-0.9,7.4c52,4.4,95.9,34.6,116.1,76.5
				l6.8-2.9C402.2,88.8,391.3,74.5,378,62.4z"/>
			<path class="st8" d="M342.8,126.3c-5.4,1.4-10.2,3.4-14.2,5.4c-0.5,0.4-1,0.6-1.5,1c-0.5,0.3-1.1,0.5-1.6,0.6
				c-6.2,3.4-9.8,6.5-9.8,6.5s3.6,0.8,9.3,1l41.9-17.8C361.3,122.8,352.5,123.9,342.8,126.3z"/>
			<path class="st8" d="M322.4,109.2C310.3,117.2,304,129,304,129s13.3-1,25.4-8.9c12.1-7.9,20.3-16.7,18.3-19.7
				C345.8,97.3,334.6,101.3,322.4,109.2z M316,121.5c-2.5,2.8-5.4,4.3-6.4,3.4c-1.1-1,0.1-4,2.5-6.8c2.4-2.8,5.4-4.3,6.4-3.4
				C319.5,115.6,318.5,118.8,316,121.5z"/>
			<path class="st8" d="M296.5,118c-0.1,0.8-0.3,1.4-0.5,2.1c3.1-1.9,8-5.3,13.1-10c-0.6-0.9-0.5-2.8,0.3-4.8c1-2.4,2.8-4,3.9-3.5
				c0.8,0.4,1.1,1.5,0.9,3c0.6-0.8,1.1-1.4,1.8-2.1c10-12.9,15.9-25.1,13.1-27.2c-2.8-2.1-13.2,6.5-23.2,19.3
				c-10,12.9-13.1,27.2-13.1,27.2s0,0,0.1,0C293.8,120.5,294.9,119.2,296.5,118z"/>
			<path class="st8" d="M298.5,57.8c-3.5-0.8-9,11.5-12.6,27.5c-3.5,15.9,0,30.3,0,30.3s0.6-0.9,1.6-2.3c-1.9-0.5-2.5-4-1.6-7.9
				c1-3.9,3.3-6.7,5.1-6.3c1.3,0.4,2,2.1,2,4.5c2.1-4.4,4.1-9.7,5.4-15.6C301.9,72.1,301.9,58.5,298.5,57.8z"/>
			<path class="st6" d="M318.9,140.4c-3.6,0.6-5.5,1-9.2,1.6c2.3-2.1,3.5-2.9,5.6-4.9c-3.5,1-5.4,1.3-8.9,2c1.8-2.1,2.8-2.6,4.5-4.6
				c-3.4,1.1-4.9,0.8-8.2,1.4c1.4-2.4,1.9-3.4,3-5c-2.6,0-3.9-0.1-6.9,1c1.1-3.1,1.6-4.4,2.4-6.9c-2.3,0.3-4.3,0.8-6.9,3.3
				c0.5-3,0.9-5.3,1.5-7.9c0.1-0.6,0.3-1.4,0.5-2.1c-1.6,1.1-2.6,2.5-3.6,3.9c-0.8,1.1-1.5,2.3-2.5,3.4c0.1-3.6,0.1-6,0.4-9.5
				c-2.1,3.1-3.1,4.9-4.9,7.3c-0.5-3.3-0.8-5.3-1-8.2c-1.8,2.8-2.5,4.5-3.9,7c-1.1-2.9-1.8-4.6-2.4-7.3c-1,1.5-1.5,2.6-2.1,4
				l-5.5,45.3l44.4-18.8c-0.9,0.1-1.8,0.1-2.9,0.3C315,143.4,316.2,142.4,318.9,140.4z"/>
			<path class="st7" d="M312.1,118.2c-2.5,2.8-3.6,5.9-2.5,6.8c1.1,1,3.9-0.5,6.4-3.4c2.5-2.8,3.6-5.9,2.5-6.8
				C317.5,113.8,314.6,115.3,312.1,118.2z"/>
			<path class="st7" d="M291.1,99.1c-1.9-0.5-4.1,2.4-5.1,6.3c-1,3.9-0.3,7.4,1.6,7.9c1.9,0.4,4.1-2.4,5-6.3
				c0.3-1.3,0.4-2.4,0.4-3.4C293.1,101.2,292.4,99.3,291.1,99.1z"/>
			<path class="st7" d="M313.3,101.7c-1.1-0.5-2.9,1.1-3.9,3.5c-0.8,2-0.9,3.9-0.3,4.8c0.1,0.3,0.4,0.4,0.5,0.5
				c1.1,0.5,2.9-1.1,3.9-3.5c0.4-0.8,0.5-1.5,0.6-2.3C314.5,103.2,314.1,102.1,313.3,101.7z"/>
			<path class="st7" d="M328.6,131.7c1.4-1.1,2.1-2.4,1.8-3.3c-0.6-1.1-3-1-5.3,0.3c-2.4,1.3-3.8,3.1-3.1,4.3c0.5,0.9,2,1,3.6,0.4
				c0.5-0.1,1-0.4,1.6-0.6C327.6,132.5,328.1,132.1,328.6,131.7z"/>
			<path class="st9" d="M129,372.3h239l18.5,135.5l-278,6.5L129,372.3z"/>
			<path class="st10" d="M394.5,318.3c0,114.5-91.5,114.5-145.5,114.5c-44.5,0-145.5,0-145.5-114.5c0-60.8,48.5-118.5,145.5-118.5
				C349,199.8,394.5,257.6,394.5,318.3z"/>
			<path class="st9" d="M136.3,260.4c17.3,13.8,4.7,13.8-5.8,27c-10.5,13.2-5.5,34.4-13.1,28.4c-17.3-13.8-39.8-56.4-29.3-69.6
				C98.5,232.9,119,246.6,136.3,260.4z"/>
			<path class="st9" d="M363.3,261.4c-17.3,13.8-4.7,13.8,5.8,27c10.5,13.2,5.5,34.4,13.1,28.4c17.3-13.8,39.8-56.4,29.3-69.6
				C401,233.9,380.5,247.6,363.3,261.4z"/>
			<path class="st11" d="M238.9,397.7c4.5-1.5,8.1-2.7,10.6-3v-44.1c-5.5,0.9-12.7,0.1-20.3-0.8c-10.8-1.3-22.5-2.7-31.7,0.6
				c-11.5,4.2-23,11.7-23,37.3c0,10.9,13,19.3,33.5,17.4C220.4,403.9,231,400.3,238.9,397.7z M260.1,397.7c-4.5-1.5-8.1-2.7-10.6-3
				v-44.1c5.5,0.9,12.7,0.1,20.3-0.8c10.8-1.3,22.5-2.7,31.7,0.6c11.5,4.2,23,11.7,23,37.3c0,10.9-13,19.3-33.5,17.4
				C278.6,403.9,268,400.3,260.1,397.7z"/>
			<path class="st12" d="M280.5,349.6c0,8.5-20.5,20.7-30.5,20.7c-10,0-30.5-12.3-30.5-20.7c0-8.4,13.7-15.3,30.5-15.3
				C266.9,334.3,280.5,341.2,280.5,349.6z"/>
			<path class="st12" d="M199.5,312.8c0,6.6-9.6,9.5-19.5,9.5c-9.9,0-13.5-5.4-13.5-12c0-6.6,12.1-15,22-15
				C198.4,295.3,199.5,306.2,199.5,312.8z"/>
			<path class="st12" d="M299.5,311.8c0,6.6,9.6,9.5,19.5,9.5c9.9,0,13.5-5.4,13.5-12c0-6.6-12.1-15-22-15
				C300.6,294.3,299.5,305.2,299.5,311.8z"/>
			<path class="st13" d="M189.1,278.7c-0.1,0-0.1,0-0.2,0c-1.4-0.1-2.4-1.3-2.3-2.7c1.2-13.9,0.9-47.3-8.5-74.5
				c-0.5-1.3,0.2-2.7,1.5-3.2c1.3-0.5,2.7,0.2,3.2,1.5c9.7,28,9.9,62.3,8.7,76.5C191.5,277.7,190.4,278.7,189.1,278.7z"/>
			<path class="st13" d="M310,276.7c-1.3,0-2.4-1-2.5-2.3c-1.2-14.2-0.9-48.6,8.7-76.5c0.5-1.3,1.9-2,3.2-1.5c1.3,0.5,2,1.9,1.5,3.2
				c-9.4,27.2-9.7,60.6-8.5,74.5c0.1,1.4-0.9,2.6-2.3,2.7C310.2,276.7,310.1,276.7,310,276.7z"/>
			<path class="st13" d="M401.4,396.1c-0.3,0-0.6-0.1-1-0.2c-36.3-15.2-84.7-22.8-105.1-24.7c-1.4-0.1-2.4-1.3-2.3-2.7
				c0.1-1.4,1.4-2.4,2.7-2.3c20.7,1.9,69.7,9.7,106.6,25.1c1.3,0.5,1.9,2,1.3,3.3C403.3,395.5,402.3,396.1,401.4,396.1z"/>
			<path class="st13" d="M98.2,398.1c-1,0-1.9-0.6-2.3-1.5c-0.5-1.3,0.1-2.7,1.3-3.3c36.9-15.4,85.9-23.2,106.6-25.1
				c1.4-0.1,2.6,0.9,2.7,2.3s-0.9,2.6-2.3,2.7c-20.5,1.9-68.8,9.5-105.1,24.7C98.9,398,98.5,398.1,98.2,398.1z"/>
			<path class="st13" d="M172.9,282c-1.4,0-2.5-1.1-2.5-2.5c-0.2-8.1-5.8-26.5-15.1-43.3c-0.7-1.2-0.2-2.7,1-3.4
				c1.2-0.7,2.7-0.2,3.4,1c9.6,17.5,15.5,36.9,15.7,45.6C175.4,280.9,174.3,282,172.9,282C172.9,282,172.9,282,172.9,282z"/>
			<path class="st13" d="M326.3,280C326.3,280,326.2,280,326.3,280c-1.4,0-2.5-1.2-2.5-2.5c0.2-8.7,6.1-28.2,15.7-45.6
				c0.7-1.2,2.2-1.7,3.4-1c1.2,0.7,1.7,2.2,1,3.4c-9.2,16.8-14.9,35.2-15,43.3C328.7,278.9,327.6,280,326.3,280z"/>
			<path class="st13" d="M364.5,418.8c-0.4,0-0.9-0.1-1.3-0.4c-21.6-12.9-66.4-30.2-78.1-32.2c-1.4-0.2-2.3-1.5-2.1-2.9
				c0.2-1.4,1.5-2.3,2.9-2.1c13.3,2.2,59.3,20.5,79.9,32.8c1.2,0.7,1.6,2.2,0.9,3.4C366.2,418.4,365.4,418.8,364.5,418.8z"/>
			<path class="st13" d="M135.1,420.8c-0.9,0-1.7-0.4-2.1-1.2c-0.7-1.2-0.3-2.7,0.9-3.4c20.6-12.3,66.6-30.6,79.9-32.8
				c1.4-0.2,2.6,0.7,2.9,2.1s-0.7,2.6-2.1,2.9c-11.7,2-56.5,19.3-78.1,32.2C136,420.7,135.5,420.8,135.1,420.8z"/>
		</g>
	</g>
</g>
</svg>
