<svg xmlns="http://www.w3.org/2000/svg" viewBox="0 0 262.29 400.28"><defs><style>.cls-1{fill:#b07f48;}.cls-2{fill:#92c01f;}.cls-3,.cls-6{fill:#6bad35;}.cls-3{isolation:isolate;opacity:0.7;}.cls-4{fill:#d7e085;}.cls-5{fill:#24130d;}.cls-7,.cls-9{fill:#625752;}.cls-8{fill:#93847d;}.cls-9{fill-rule:evenodd;}.cls-10{fill:#2b2b2b;}.cls-11{fill:#cbc0c0;}</style></defs><g id="Шар_2" data-name="Шар 2"><g id="Слой_1" data-name="Слой 1"><path class="cls-1" d="M230.31,96.45a97.52,97.52,0,0,1,9.49,42c0,58.4-51.78,105.79-115.6,105.79S8.6,196.89,8.6,138.49,60.38,32.71,124.2,32.71c4,0,7.9.24,11.73.48l.4-4.95c-4-.4-8.14-.64-12.21-.64C57.75,27.6,3.66,77.3,3.66,138.25S57.75,248.91,124.12,248.91s120.55-49.55,120.55-110.58a102.75,102.75,0,0,0-10.06-44.19Z"/><path class="cls-2" d="M122.61,142.08,135.93,33.19a115,115,0,0,0-11.73-.48C60.38,32.71,8.6,80.1,8.6,138.49S60.38,244.28,124.2,244.28s115.6-47.39,115.6-105.79a98.69,98.69,0,0,0-9.49-42Z"/><path class="cls-3" d="M114,78.34c0-13,2.31-23.61,5.11-23.61s5.1,10.61,5.1,23.61A60.54,60.54,0,0,1,119.1,102,60.45,60.45,0,0,1,114,78.34Z"/><path class="cls-3" d="M98.91,91.43c-4.23-12.29-5.5-23.06-2.79-23.94s8.3,8.3,12.53,20.66a60.08,60.08,0,0,1,2.79,24A60.32,60.32,0,0,1,98.91,91.43Z"/><path class="cls-3" d="M81.76,100c-8-10.29-12.68-20-10.45-21.7s10.53,5.19,18.51,15.4a59.88,59.88,0,0,1,10.45,21.7A59.74,59.74,0,0,1,81.76,100Z"/><path class="cls-3" d="M72.35,114.56c-10.93-7.1-18.51-14.84-16.92-17.23s11.65,1.51,22.5,8.61a58.66,58.66,0,0,1,16.91,17.24A60.63,60.63,0,0,1,72.35,114.56Z"/><path class="cls-3" d="M70.59,133.47c-12.84-2.63-22.73-6.94-22.1-9.74s11.33-2.87,24.18-.39a56.92,56.92,0,0,1,22.09,9.73A60.42,60.42,0,0,1,70.59,133.47Z"/><path class="cls-3" d="M62.93,152.14c-12.92,1.67-23.77.87-24-1.92-.4-2.79,9.81-6.54,22.74-8.22a61.16,61.16,0,0,1,24,1.92A59.15,59.15,0,0,1,62.93,152.14Z"/><path class="cls-3" d="M77.69,168.89c-11.09,6.78-21.3,10.45-22.81,8s6.3-9.9,17.39-16.76a60.62,60.62,0,0,1,22.81-8A61.4,61.4,0,0,1,77.69,168.89Z"/><path class="cls-3" d="M89.18,184.84c-9.65,8.78-18.91,14.36-20.82,12.21s4.31-10.93,13.88-19.7a61.48,61.48,0,0,1,20.82-12.21A58.25,58.25,0,0,1,89.18,184.84Z"/><path class="cls-3" d="M106.65,193.86c-6.22,11.41-13.24,19.62-15.71,18.35s.47-11.73,6.7-23.22a61.61,61.61,0,0,1,15.71-18.35A60.86,60.86,0,0,1,106.65,193.86Z"/><path class="cls-3" d="M127.71,191.71c-.48,13-3.19,23.45-6.14,23.37-2.79-.08-4.71-10.85-4.23-23.85a58.64,58.64,0,0,1,6.14-23.38A57.78,57.78,0,0,1,127.71,191.71Z"/><path class="cls-3" d="M144,190.67c2.07,12.84,1.59,23.61-1.2,24.17s-6.78-9.65-8.93-22.42a61.55,61.55,0,0,1,1.19-24.17A61,61,0,0,1,144,190.67Z"/><path class="cls-3" d="M162.5,182.05c6.22,11.41,9.17,21.86,6.7,23.22s-9.5-6.78-15.72-18.35a59.53,59.53,0,0,1-6.7-23.22A60.47,60.47,0,0,1,162.5,182.05Z"/><path class="cls-3" d="M175.5,168.65c9.81,8.62,16.19,17.31,14.36,19.47s-11.33-3.12-21.14-11.73a59.94,59.94,0,0,1-14.36-19.47A59.86,59.86,0,0,1,175.5,168.65Z"/><path class="cls-3" d="M184.75,149.74c10.29,4.47,17.63,10.45,16.44,13.09s-10.53,1.27-20.74-3.2A44.36,44.36,0,0,1,164,146.55,43.46,43.46,0,0,1,184.75,149.74Z"/><path class="cls-3" d="M184.43,131c13,1.12,23.38,4.23,23.14,7.1s-10.93,4.23-23.93,3.2a60.7,60.7,0,0,1-23.14-7.1A58.77,58.77,0,0,1,184.43,131Z"/><path class="cls-3" d="M199.59,109.45l-33.27,14.13a61.38,61.38,0,0,0,15.4-1.6c12.61-3.19,22.34-8,21.62-10.85C203,110.25,201.75,109.69,199.59,109.45Z"/><path class="cls-4" d="M158.51,135.7c2.71-.88,4.07-1.43,6.78-2.39-3-.24-4.47-.32-7.5-.64,2.47-1.2,3.83-1.83,6.38-2.87-3,0-4.47,0-7.58.08,2.32-1.44,3.51-2.08,5.83-3.43-1.44.08-2.48.24-3.59.32l-36.14,15.31,4.78-38.69a30.77,30.77,0,0,0-2.31,5c-1.2-2.48-1.84-3.91-2.71-6.15a30.86,30.86,0,0,0-1.92,6.55c-1.51-2.72-2.31-4.31-3.59-6.39a55.75,55.75,0,0,0-1.11,7.18,57.25,57.25,0,0,0-4-6.3c-.08,2.47,0,4.63,0,7.5-1.92-2.23-2.88-3.83-4.79-5.82.32,2.63.48,4.46.88,7.42-2.24-2-3.19-3.11-5.59-5.35.8,2.87,1.2,4.47,1.92,7.18-2.4-1.83-3.83-2.79-6.54-4.71,1.27,2.88,1.91,4.07,3,6.79-2.71-1.6-4.07-2.24-7-3.83,1.67,2.47,2.47,3.83,3.91,6.3-2.8-1.2-4.71-2-7.18-3.19,1.67,2.31,2.79,3.51,4.46,6a33.6,33.6,0,0,0-6.78-2.07c1.84,1.67,2.48,3.11,4.31,4.78a38.67,38.67,0,0,0-6.3-.79A29,29,0,0,1,90.54,127c-2.48-.24-3.83-.24-6.23-.32a57,57,0,0,1,5,3.11h-6a35.89,35.89,0,0,1,5.18,2.87c-2.31.08-3.11,0-5.74.24a24.35,24.35,0,0,1,5.34,2.71,37.2,37.2,0,0,0-5.58.4,16.26,16.26,0,0,1,5.42,2.47,21.49,21.49,0,0,0-5.18,1.2,27.45,27.45,0,0,1,5.5,2A49.35,49.35,0,0,0,83.83,144a50.76,50.76,0,0,1,5.11.88c-1.67,1.11-2,1.83-3.51,3.19,2.07,0,2.47-.24,4.47-.32a15.92,15.92,0,0,0-3,4.07,17.25,17.25,0,0,1,4.07-1.28,21.54,21.54,0,0,0-2.8,4.71c1.52-1.28,1.44-1.44,4.39-2.08a21.26,21.26,0,0,0-2.87,3.59c1.59-.79,2.63-.87,5.42-1.59-1.59,1.51-2.63,2.07-3.19,3.43a25.38,25.38,0,0,1,6-1.6,18.67,18.67,0,0,0-2.4,3.51c1.92-.64,2.87-.72,5.35-1.59-1,1.67-1.2,2.63-2,4,1.84-.4,2.48-1.12,5.11-2.4-.88,2-1.2,2.79-2,4.71,1.92-1.44,3.59-1.84,5.91-3.27-.4,2.07-.72,2.87-1.2,5.1,2.31-1.59,3.43-2.39,5.43-3.9.08,2,0,3.11.08,5.34a43.72,43.72,0,0,0,4.3-4.31c.48,2.08.72,3.19,1.2,5.43,1.12-1.92,1.6-2.72,2.63-4.23.72,2.39,1.12,3.59,1.84,6,.72-1.67,1.11-2.63,1.83-4.39,1,2.4,1.52,3.59,2.64,5.83.47-2.08.63-3.11,1.19-5.35,1.6,1.92,2.32,2.87,3.67,4.71.24-2.07.4-3.11.8-5.11,1.83,1.84,2.47,2.64,4.07,4.23a25.54,25.54,0,0,1,.48-4.39,32.17,32.17,0,0,0,4.62,3.43,15.83,15.83,0,0,1,.08-3.9,14.9,14.9,0,0,0,5,1.59,14.44,14.44,0,0,1-.88-3.59c1.92-.08,2.71-.48,5.19,0-1.2-1.83-1.52-2.39-2.32-3.59a6.4,6.4,0,0,1,6,.24,28.32,28.32,0,0,0-3.83-4.31c2.23-.87,4,.24,6.78.88-1.92-1.83-2.87-3.27-4.71-4.63,2.79-.08,4.39.72,7.34,1.2-2.07-1.6-3.11-2.31-5.34-3.91,3,.32,4.46.4,7.5.72-2.32-1.44-3.51-2.08-5.83-3.43,3,0,4.47,0,7.58.08-2.47-1.2-3.83-1.84-6.38-2.87,3-.24,4.47-.32,7.5-.64-2.71-.88-4.07-1.44-6.78-2.4l7.42-1.19c-2.88-.72-4.31-1.12-7.1-1.84,2.87-.71,4.3-1.11,7.1-1.83Z"/><path class="cls-5" d="M120.13,95.49c1.52-.24,2.32-3,1.84-6.22s-2.24-5.5-3.75-5.26-2.31,3-1.84,6.22S118.54,95.73,120.13,95.49Z"/><path class="cls-5" d="M112.32,102.51c.79-.55.39-2.47-.8-4.14s-3-2.56-3.75-2-.4,2.47.8,4.15S111.52,103.07,112.32,102.51Z"/><path class="cls-5" d="M84.47,125c.08-1-1.59-1.91-3.75-2s-3.83.64-3.91,1.67,1.6,1.84,3.75,2S84.39,126.05,84.47,125Z"/><path class="cls-5" d="M78.65,141.92c1.91-.87,3.11-2.31,2.71-3.19s-2.31-.95-4.23-.08S74,141,74.42,141.84,76.73,142.8,78.65,141.92Z"/><path class="cls-5" d="M76.42,136.1c.08-1-1.52-2-3.59-2.23s-3.91.4-4,1.35,1.51,2,3.59,2.24S76.26,137.06,76.42,136.1Z"/><path class="cls-5" d="M96.28,102.59c1.12-1,.32-3.75-1.83-6.14s-4.79-3.59-5.91-2.55-.32,3.75,1.84,6.14S95.16,103.63,96.28,102.59Z"/><path class="cls-5" d="M80.48,115.76c.56-1.44-1.43-3.51-4.46-4.71s-5.91-.88-6.47.56S71,115.12,74,116.32,79.93,117.19,80.48,115.76Z"/><path class="cls-5" d="M74,153.49c3-1.11,5-3.19,4.47-4.63s-3.43-1.59-6.38-.47-5,3.19-4.47,4.62S71.07,154.61,74,153.49Z"/><path class="cls-5" d="M80.56,163.38c2.4-1.67,3.83-3.75,3.2-4.7s-3.12-.4-5.59,1.27-3.83,3.75-3.19,4.71S78.09,165.06,80.56,163.38Z"/><path class="cls-5" d="M102.1,178.22c1.52-2.87,1.68-5.66.32-6.38s-3.59,1-5.1,3.91-1.68,5.74-.32,6.38S100.59,181,102.1,178.22Z"/><path class="cls-5" d="M130.27,188.27c0-3.19-1.28-5.82-2.8-5.82s-2.79,2.63-2.79,5.82,1.28,5.83,2.79,5.83S130.27,191.47,130.27,188.27Z"/><path class="cls-5" d="M147.5,182.13c1.35-.72,1.27-3.59-.24-6.46s-3.83-4.55-5.19-3.83-1.27,3.59.24,6.46S146.14,182.85,147.5,182.13Z"/><path class="cls-5" d="M168.48,174.71c.88-1.19-.64-3.67-3.27-5.5s-5.51-2.32-6.3-1.12.63,3.67,3.27,5.51S167.68,175.91,168.48,174.71Z"/><path class="cls-5" d="M173.11,144.64c.16-1-1.36-2.08-3.35-2.32s-3.67.4-3.83,1.44,1.35,2.07,3.35,2.31S173,145.67,173.11,144.64Z"/><path class="cls-5" d="M174.38,127.56c3.19-.08,5.75-1.35,5.75-2.87s-2.72-2.63-5.91-2.55-5.74,1.36-5.74,2.87S171.19,127.72,174.38,127.56Z"/><path class="cls-5" d="M85.19,174.47c1.52-1.43,2.16-3.27,1.44-4s-2.48-.08-4,1.36-2.16,3.27-1.44,4S83.68,176,85.19,174.47Z"/><path class="cls-5" d="M119.58,179.34c.79-1.91.71-3.83-.24-4.23S117,176,116.22,178s-.71,3.83.24,4.23S118.78,181.25,119.58,179.34Z"/><path class="cls-5" d="M173,156.44c.32-.95-.88-2.31-2.8-2.95s-3.67-.4-4.06.64.87,2.31,2.79,3S172.55,157.48,173,156.44Z"/><path class="cls-5" d="M174.78,137.94c1.92-.48,3.27-1.76,2.95-2.8s-2.07-1.43-4-.87-3.27,1.75-3,2.79S172.87,138.49,174.78,137.94Z"/><path class="cls-2" d="M160.9,5.82l-8.62,69.57c.48-1.12,1-2,1.68-3.19.64,2.07,1.12,3.51,1.91,5.82A56.71,56.71,0,0,1,159,72.44c.23,2.31.39,3.91.79,6.54,1.44-1.91,2.24-3.27,3.91-5.82-.24,2.79-.24,4.78-.32,7.57a15.38,15.38,0,0,0,2-2.71h-.08a58.33,58.33,0,0,1,10.45-21.7c8-10.21,16.35-17.23,18.51-15.39,2.23,1.67-2.4,11.48-10.45,21.7a10.25,10.25,0,0,1-1.44,1.67,7.81,7.81,0,0,1-.48,1.84c-.8,1.91-2.23,3.19-3.11,2.79a.66.66,0,0,1-.4-.4,57.82,57.82,0,0,1-10.45,8c-.4,2.07-.8,3.83-1.2,6.3a8.37,8.37,0,0,1,5.51-2.63c-.72,2-1.12,3.11-1.92,5.5a12.33,12.33,0,0,1,5.51-.8c-.88,1.28-1.28,2.08-2.4,4,2.48-.48,3.83-.24,6.55-1.11-1.44,1.59-2.08,2-3.59,3.67,2.79-.64,4.3-.8,7.1-1.6-1.84,1.6-2.72,2.23-4.47,3.91,2.87-.48,4.39-.8,7.34-1.28-2.08,1.6-3.11,2.32-5.35,3.91a18.85,18.85,0,0,0,2.32-.24l7.9-3.27a61.67,61.67,0,0,1-7.42-.8,49.63,49.63,0,0,1,7.81-5.18c-1.43.4-2.63.32-2.87-.32-.48-.88.72-2.39,2.48-3.43,1.91-1,3.82-1.12,4.22-.24.4.72-.24,1.67-1.43,2.63a60.54,60.54,0,0,1,11.33-4.31,73.66,73.66,0,0,1,19.22-2.63l28.88-12.21C237.33,33.43,202.38,9.33,160.9,5.82ZM170,51.06a62.9,62.9,0,0,1-4.3,12.44,11,11,0,0,1-.32,2.72c-.8,3.11-2.64,5.34-4,5-.8,1.2-1.28,1.84-1.28,1.84a59.61,59.61,0,0,1,0-24.18c2.79-12.68,7.18-22.49,10.05-21.94C172.71,27.52,172.71,38.37,170,51.06Zm24.66,25.53a48,48,0,0,1-20.27,7.1A48.47,48.47,0,0,1,189,68c9.65-6.3,18.75-9.49,20.27-7.1S204.38,70.28,194.65,76.59Z"/><path class="cls-1" d="M233.42,30.63A122.5,122.5,0,0,0,161.62,0l-.72,5.9c41.48,3.51,76.51,27.61,92.62,61L259,64.62A111.35,111.35,0,0,0,233.42,30.63Z"/><path class="cls-6" d="M205.34,81.61A57.83,57.83,0,0,0,194,85.92c-.4.32-.8.48-1.2.8a4.18,4.18,0,0,1-1.28.48,49.63,49.63,0,0,0-7.81,5.18,44.82,44.82,0,0,0,7.42.8L224.56,79C220.09,78.82,213.07,79.7,205.34,81.61Z"/><path class="cls-6" d="M189.06,68a48.86,48.86,0,0,0-14.68,15.8,48,48,0,0,0,20.27-7.1c9.65-6.31,16.19-13.33,14.6-15.72S198.79,61.67,189.06,68ZM184,77.78c-2,2.24-4.31,3.43-5.11,2.72s.08-3.2,2-5.43,4.31-3.43,5.11-2.71S186,75.63,184,77.78Z"/><path class="cls-6" d="M168.4,75a10.33,10.33,0,0,1-.4,1.68,70.46,70.46,0,0,0,10.45-8c-.48-.72-.4-2.24.24-3.83.8-1.92,2.23-3.19,3.11-2.79.64.32.88,1.19.72,2.39A14.49,14.49,0,0,1,184,62.78c8-10.29,12.68-20,10.45-21.69s-10.53,5.18-18.51,15.39a60.5,60.5,0,0,0-10.45,21.7h.08A10.72,10.72,0,0,1,168.4,75Z"/><path class="cls-6" d="M170,27c-2.79-.63-7.18,9.18-10.05,21.94a59.74,59.74,0,0,0,0,24.18s.48-.72,1.28-1.84c-1.52-.4-2-3.19-1.28-6.3s2.64-5.35,4.07-5c1,.32,1.6,1.68,1.6,3.59a58.15,58.15,0,0,0,4.3-12.44C172.71,38.37,172.71,27.52,170,27Z"/><path class="cls-4" d="M186.27,92.86c-2.87.48-4.39.8-7.34,1.28,1.83-1.68,2.79-2.32,4.47-3.91-2.8.8-4.31,1-7.1,1.59,1.43-1.67,2.23-2.07,3.59-3.67-2.72.88-3.91.64-6.54,1.12,1.11-1.91,1.51-2.71,2.39-4a12.64,12.64,0,0,0-5.51.8c.88-2.47,1.28-3.51,1.92-5.5a8.48,8.48,0,0,0-5.51,2.63c.4-2.4.72-4.23,1.2-6.3a16.75,16.75,0,0,1,.4-1.68,11.67,11.67,0,0,0-2.87,3.11,28.09,28.09,0,0,1-2,2.71c.08-2.87.08-4.78.32-7.57-1.67,2.47-2.47,3.9-3.91,5.82-.4-2.63-.64-4.23-.79-6.54-1.44,2.23-2,3.59-3.12,5.58A39,39,0,0,1,154,72.52a17.31,17.31,0,0,0-1.68,3.19l-4.38,36.14,35.42-15c-.72.08-1.44.08-2.32.24C183.16,95.25,184.12,94.46,186.27,92.86Z"/><path class="cls-5" d="M180.84,75.15c-2,2.23-2.87,4.71-2,5.43s3.11-.4,5.11-2.72,2.87-4.7,2-5.42S182.84,72.84,180.84,75.15Z"/><path class="cls-5" d="M164.09,59.91c-1.51-.4-3.27,1.92-4.07,5s-.24,5.9,1.28,6.3,3.27-1.91,4-5a11.86,11.86,0,0,0,.32-2.72C165.69,61.59,165.13,60.07,164.09,59.91Z"/><path class="cls-5" d="M181.8,62c-.88-.4-2.31.87-3.11,2.79-.64,1.59-.72,3.11-.24,3.83.08.24.32.32.4.4.88.4,2.31-.88,3.11-2.79a5.23,5.23,0,0,0,.48-1.84C182.76,63.18,182.44,62.31,181.8,62Z"/><path class="cls-5" d="M194,85.92c1.11-.88,1.67-1.91,1.43-2.63-.48-.88-2.39-.8-4.22.24s-3,2.47-2.48,3.43c.4.72,1.6.8,2.87.32a13.27,13.27,0,0,0,1.28-.48C193.21,86.56,193.61,86.24,194,85.92Z"/><path class="cls-7" d="M34.77,277.87H225.44Q232,326,238.59,374.2a226.25,226.25,0,0,1-214.84-2.12Q29.27,325,34.77,277.87Z"/><path class="cls-8" d="M246.58,234.79c0,91.34-73,91.34-116.08,91.34-35.5,0-116.07,0-116.07-91.34,0-48.51,38.69-94.54,116.07-94.54C210.28,140.25,246.58,186.36,246.58,234.79Z"/><path class="cls-7" d="M40.6,188.59c13.8,11,3.74,11-4.63,21.54s-4.39,27.45-10.45,22.66c-13.8-11-31.75-45-23.38-55.52S26.79,177.58,40.6,188.59Z"/><path class="cls-7" d="M221.69,189.39c-13.8,11-3.75,11,4.63,21.54s4.39,27.45,10.45,22.66c13.8-11,31.75-45,23.37-55.53S235.41,178.38,221.69,189.39Z"/><path class="cls-9" d="M122.45,298.13a50.5,50.5,0,0,1,8.45-2.39V260.55c-4.38.72-10.13.08-16.19-.63-8.62-1-17.95-2.16-25.29.47-9.18,3.35-18.35,9.34-18.35,29.76,0,8.7,10.37,15.4,26.73,13.88C107.69,303.07,116.14,300.2,122.45,298.13Zm16.91,0a50.29,50.29,0,0,0-8.46-2.39V260.55c4.39.72,10.14.08,16.2-.63,8.61-1,18-2.16,25.29.47,9.17,3.35,18.35,9.34,18.35,29.76,0,8.7-10.37,15.4-26.73,13.88C154.12,303.07,145.66,300.2,139.36,298.13Z"/><path class="cls-10" d="M155.63,259.76c0,6.78-16.35,16.51-24.33,16.51S107,266.46,107,259.76s10.93-12.21,24.33-12.21S155.63,253.05,155.63,259.76Z"/><path class="cls-10" d="M91,230.4c0,5.26-7.65,7.58-15.55,7.58s-10.77-4.31-10.77-9.58,9.65-12,17.55-12S91,225.13,91,230.4Z"/><path class="cls-10" d="M170.79,229.6c0,5.27,7.66,7.58,15.56,7.58s10.77-4.31,10.77-9.57-9.65-12-17.55-12S170.79,224.33,170.79,229.6Z"/><path class="cls-11" d="M82.72,203.19h-.16A2,2,0,0,1,80.72,201c1-11.09.72-37.74-6.78-59.43a2,2,0,1,1,3.75-1.36c7.74,22.34,7.9,49.7,6.94,61A1.88,1.88,0,0,1,82.72,203.19Z"/><path class="cls-11" d="M179.17,201.6a2,2,0,0,1-2-1.84c-.95-11.33-.71-38.77,7-61a2,2,0,1,1,3.74,1.36c-7.49,21.7-7.73,48.34-6.78,59.43a2,2,0,0,1-1.83,2.16C179.33,201.6,179.25,201.6,179.17,201.6Z"/><path class="cls-11" d="M252.09,296.85a3.52,3.52,0,0,1-.8-.16c-29-12.12-67.57-18.19-83.85-19.7a2,2,0,0,1-1.83-2.16,2,2,0,0,1,2.15-1.83c16.51,1.51,55.61,7.74,85,20a1.94,1.94,0,0,1,1,2.64A1.91,1.91,0,0,1,252.09,296.85Z"/><path class="cls-11" d="M10.2,298.45a2,2,0,0,1-1.83-1.2,2.09,2.09,0,0,1,1-2.63c29.44-12.29,68.53-18.51,85.05-20a2,2,0,0,1,.31,4c-16.35,1.52-54.88,7.58-83.84,19.71A1.91,1.91,0,0,1,10.2,298.45Z"/><path class="cls-11" d="M69.79,205.83a2,2,0,0,1-2-2c-.16-6.46-4.63-21.14-12-34.54a2,2,0,0,1,3.51-1.92c7.66,14,12.37,29.44,12.53,36.38a2,2,0,0,1-2,2.08Z"/><path class="cls-11" d="M192.17,204.23h0a2,2,0,0,1-2-2c.16-6.94,4.86-22.5,12.52-36.38a2,2,0,1,1,3.51,1.91c-7.34,13.4-11.88,28.08-12,34.55A2.22,2.22,0,0,1,192.17,204.23Z"/><path class="cls-11" d="M222.65,315a1.76,1.76,0,0,1-1-.32c-17.23-10.29-53-24.09-62.31-25.69a2,2,0,1,1,.64-4c10.61,1.75,47.31,16.35,63.74,26.16a2,2,0,0,1,.72,2.71A1.85,1.85,0,0,1,222.65,315Z"/><path class="cls-11" d="M39.64,316.56a1.8,1.8,0,0,1-1.68-1,2,2,0,0,1,.72-2.71c16.43-9.82,53.13-24.41,63.74-26.17a2.05,2.05,0,0,1,2.32,1.68,2,2,0,0,1-1.68,2.31C93.73,292.3,58,306.11,40.75,316.4A6.05,6.05,0,0,1,39.64,316.56Z"/></g></g></svg>